<svg version="1.2" xmlns="http://www.w3.org/2000/svg" viewBox="0 0 1173 316" width="1173" height="316">
	<style>
		.s0 { fill: #ed145b } 
	</style>
	<path id="Path 0" fill-rule="evenodd" class="s0" d="m606.11 0.46l22.01-0.17 53 85.56c29.15 47.06 53.76 90.17 53.34 90.61-0.78 0.82-3.94 0.28-24.73 0.21l-46.52-74.82c-45.36-70.51-46.62-74.34-47.77-72.59-0.5 0.76-42.83 66.86-89.59 142.15-46.77 75.29-89.77 144.04-90.72 144.32-1.11 0.31-4.42 0.18-11.49 0.13-5.59-0.04-9.54 0.38-9.91-0.22-0.24-0.39 21.42-38.85 47.62-81.55 26.2-42.71 66.24-107.97 88.98-145.03 22.75-37.06 48.98-78.11 52.97-84.35zm-340.23 3.04v21.39h-239.56l-1.07 289.83h-23.53l-0.55-154.01c-0.31-84.7-0.19-154.97 0.26-156.14 0.53-1.4 46.23-1.96 264.45-1.07zm91.98 0v312.29h-23.53l-0.35-155.79c-0.2-85.68 0.2-156.19 0.89-156.68 0.68-0.49 6.14-0.65 22.99 0.18zm513.58-2.36l216.89 1.35 17.11 5.72c10.44 3.48 22.32 9.52 30.48 15.47 7.35 5.37 16.44 14.34 20.19 19.92 3.75 5.59 8.65 15.46 10.9 21.93 2.24 6.47 4.59 18.5 5.21 26.74 0.78 10.3 0.01 19.31-2.45 28.87-1.96 7.65-6.06 18.24-9.11 23.53-3.05 5.3-10.46 14.29-16.48 19.99-6.01 5.69-17.67 13.62-25.91 17.61-8.23 3.99-20.74 8.83-27.8 10.76-9.65 2.64-25.18 3.71-112.3 5.12v-23.53l47.59 0.01c35.53 0.01 50.71-0.81 59.89-3.21 6.77-1.77 17.12-5.63 23-8.57 5.88-2.94 14.74-9.43 19.68-14.43 4.94-5 11.11-13.91 13.71-19.79 2.6-5.88 5.39-15.51 6.18-21.39 0.83-6.05 0.36-16.27-1.07-23.53-1.39-7.06-4.77-16.68-7.5-21.39-2.73-4.7-8.18-11.62-12.1-15.36-3.93-3.74-12.43-9.42-18.9-12.62-6.47-3.2-18.99-7.08-27.81-8.63-11.4-2-40.66-2.83-186.09-2.96v290.9h-23.53zm-113.05 231.14c6.57-0.06 12.69-0.05 12.99 0.29 0.46 0.49 13.39 21.77 25.63 43.12 9.68 16.89 23.48 39.48 23.18 39.88-0.39 0.5-6.15 0.22-23.83 0.22l-24.6-39.57c-13.53-21.76-25.42-43.48-25.46-43.64-0.1-0.41 5.91-0.25 12.09-0.3zm-670.04-81.19h113.37v23.53h-113.37z"/>
</svg>